HIERARCHY
ROOT Hips
{
	OFFSET 0.000000 0.000000 0.000000
	CHANNELS 6 Xposition Yposition Zposition Xrotation Yrotation Zrotation
	JOINT Spine
	{
		OFFSET 0.000000 0.053497 0.080245
		CHANNELS 3 Xrotation Yrotation Zrotation
		JOINT Spine1
		{
			OFFSET 0.000000 0.018579 0.105368
			CHANNELS 3 Xrotation Yrotation Zrotation
			JOINT Spine2
			{
				OFFSET 0.000000 0.009325 0.106586
				CHANNELS 3 Xrotation Yrotation Zrotation
				JOINT Spine3
				{
					OFFSET 0.000000 0.000000 0.106993
					CHANNELS 3 Xrotation Yrotation Zrotation
					JOINT Neck
					{
						OFFSET 0.000000 -0.040122 0.280858
						CHANNELS 3 Xrotation Yrotation Zrotation
						JOINT Head
						{
							OFFSET 0.000000 -0.025546 0.144881
							CHANNELS 3 Xrotation Yrotation Zrotation
							End Site
							{
								OFFSET 0.000000 0.000000 0.000000
							}
						}
					}
					JOINT RightShoulder
					{
						OFFSET -0.032541 -0.054234 0.175720
						CHANNELS 3 Xrotation Yrotation Zrotation
						JOINT RightArm
						{
							OFFSET -0.161619 0.000000 0.000000
							CHANNELS 3 Xrotation Yrotation Zrotation
							JOINT RightForeArm
							{
								OFFSET -0.257104 0.000000 0.000000
								CHANNELS 3 Xrotation Yrotation Zrotation
								JOINT RightHand
								{
									OFFSET -0.273485 0.000000 0.000000
									CHANNELS 3 Xrotation Yrotation Zrotation
									JOINT RightHandEnd
									{
										OFFSET -0.070844 0.000000 0.000000
										CHANNELS 3 Xrotation Yrotation Zrotation
										End Site
										{
											OFFSET 0.000000 0.000000 0.000000
										}
									}
									JOINT RightHandThumb1
									{
										OFFSET -0.028338 -0.047230 -0.018892
										CHANNELS 3 Xrotation Yrotation Zrotation
										End Site
										{
											OFFSET 0.000000 0.000000 0.000000
										}
									}
								}
							}
						}
					}
					JOINT LeftShoulder
					{
						OFFSET 0.032541 -0.054234 0.175720
						CHANNELS 3 Xrotation Yrotation Zrotation
						JOINT LeftArm
						{
							OFFSET 0.161619 0.000000 0.000000
							CHANNELS 3 Xrotation Yrotation Zrotation
							JOINT LeftForeArm
							{
								OFFSET 0.257104 0.000000 0.000000
								CHANNELS 3 Xrotation Yrotation Zrotation
								JOINT LeftHand
								{
									OFFSET 0.273485 0.000000 0.000000
									CHANNELS 3 Xrotation Yrotation Zrotation
									JOINT LeftHandEnd
									{
										OFFSET 0.070844 0.000000 0.000000
										CHANNELS 3 Xrotation Yrotation Zrotation
										End Site
										{
											OFFSET 0.000000 0.000000 0.000000
										}
									}
									JOINT LeftHandThumb1
									{
										OFFSET 0.028338 -0.047230 -0.018892
										CHANNELS 3 Xrotation Yrotation Zrotation
										End Site
										{
											OFFSET 0.000000 0.000000 0.000000
										}
									}
								}
							}
						}
					}
				}
			}
		}
	}
	JOINT RightUpLeg
	{
		OFFSET -0.096537 0.000000 -0.028202
		CHANNELS 3 Xrotation Yrotation Zrotation
		JOINT RightLeg
		{
			OFFSET 0.000000 0.000000 -0.431842
			CHANNELS 3 Xrotation Yrotation Zrotation
			JOINT RightFoot
			{
				OFFSET 0.000000 0.000000 -0.456398
				CHANNELS 3 Xrotation Yrotation Zrotation
				JOINT RightToeBase
				{
					OFFSET 0.000000 -0.128905 -0.046918
					CHANNELS 3 Xrotation Yrotation Zrotation
					End Site
					{
						OFFSET 0.000000 0.000000 0.000000
					}
				}
			}
		}
	}
	JOINT LeftUpLeg
	{
		OFFSET 0.096537 0.000000 -0.028202
		CHANNELS 3 Xrotation Yrotation Zrotation
		JOINT LeftLeg
		{
			OFFSET 0.000000 0.000000 -0.431842
			CHANNELS 3 Xrotation Yrotation Zrotation
			JOINT LeftFoot
			{
				OFFSET 0.000000 0.000000 -0.456398
				CHANNELS 3 Xrotation Yrotation Zrotation
				JOINT LeftToeBase
				{
					OFFSET 0.000000 -0.128905 -0.046918
					CHANNELS 3 Xrotation Yrotation Zrotation
					End Site
					{
						OFFSET 0.000000 0.000000 0.000000
					}
				}
			}
		}
	}
}
MOTION
Frames: 6
Frame Time: 0.033333
0.299507 1.509189 0.963445 0.156400 0.637900 6.825800 -0.403600 0.933200 0.100800 -0.750600 0.190900 -0.000300 3.662100 -3.447600 1.106300 1.116200 -2.051800 2.287900 4.484000 -7.896800 11.328900 -2.920300 7.520800 17.698500 -2.230900 10.777000 -2.434700 -5.230600 -16.938000 -14.330200 0.000000 0.000000 18.863700 10.164000 14.162400 1.189200 0.000000 0.000000 0.000000 0.000000 0.000000 0.000000 -4.895100 -3.536700 -3.595300 4.273900 12.657900 9.086400 0.000000 0.000000 -12.258200 -9.220200 -0.342900 -1.443700 0.000000 0.000000 0.000000 0.000000 0.000000 0.000000 0.680100 3.172200 -28.948800 6.249300 0.000000 0.000000 -4.985800 -2.828500 0.020700 0.858200 0.000000 0.000000 0.125800 -4.677100 15.098500 4.593700 0.000000 0.000000 -6.061000 23.848100 0.133900 12.109100 0.000000 0.000000 
0.299697 1.509022 0.963435 0.091300 0.631400 6.768600 -0.408200 0.926000 0.100600 -0.756000 0.201200 0.000400 3.679900 -3.480200 1.124600 1.111600 -2.037300 2.287300 4.481800 -7.865100 11.306700 -2.830200 7.482600 17.719000 -2.350200 10.744500 -2.619100 -5.289400 -17.093800 -13.950000 0.000000 0.000000 18.313900 9.697700 13.987000 1.114700 0.000000 0.000000 0.000000 0.000000 0.000000 0.000000 -4.909900 -3.526800 -3.544400 3.920700 12.661100 9.178700 0.000000 0.000000 -12.300000 -9.808700 -0.227000 -1.175600 0.000000 0.000000 0.000000 0.000000 0.000000 0.000000 0.726600 3.194600 -28.916200 6.296400 0.000000 0.000000 -4.996700 -2.837400 0.042200 0.852900 0.000000 0.000000 0.236200 -4.676200 15.356300 4.558800 0.000000 0.000000 -5.999500 23.918600 -0.044000 12.199400 0.000000 0.000000 
0.299857 1.508770 0.963386 0.002100 0.637900 6.641900 -0.408400 0.905500 0.104600 -0.755900 0.194400 -0.000200 3.664500 -3.502400 1.186700 1.108500 -2.036900 2.306000 4.566000 -7.869500 11.330700 -2.779600 7.442100 17.756000 -2.467000 10.741000 -2.781100 -5.600100 -17.329700 -13.718500 0.000000 0.000000 17.626400 8.785100 13.459800 1.004100 0.000000 0.000000 0.000000 0.000000 0.000000 0.000000 -4.939900 -3.449500 -3.497000 3.192600 12.560700 9.422100 0.000000 0.000000 -12.425500 -10.879600 -0.053700 -0.646700 0.000000 0.000000 0.000000 0.000000 0.000000 0.000000 0.775800 3.209900 -28.842400 6.376200 0.000000 0.000000 -5.019400 -2.849700 0.097300 0.821900 0.000000 0.000000 0.408700 -4.694500 15.771800 4.487200 0.000000 0.000000 -5.907400 24.036900 -0.308100 12.322600 0.000000 0.000000 
0.299817 1.508491 0.963310 -0.077900 0.656200 6.438800 -0.406500 0.883100 0.114400 -0.751800 0.174800 0.001400 3.619600 -3.502200 1.290800 1.103300 -2.054600 2.335700 4.652400 -7.878400 11.388100 -2.761100 7.412800 17.767800 -2.504400 10.745100 -2.791700 -6.003900 -17.524400 -13.814400 0.000000 0.000000 17.141100 7.791600 12.737100 0.905100 0.000000 0.000000 0.000000 0.000000 0.000000 0.000000 -4.980300 -3.336900 -3.466600 2.162700 12.372300 9.811700 0.000000 0.000000 -12.593400 -12.205800 -0.008100 -0.092800 0.000000 0.000000 0.000000 0.000000 0.000000 0.000000 0.806200 3.204700 -28.729700 6.453000 0.000000 0.000000 -5.047800 -2.850500 0.191400 0.784500 0.000000 0.000000 0.583400 -4.725200 16.117700 4.416700 0.000000 0.000000 -5.882800 24.111700 -0.437400 12.386300 0.000000 0.000000 
0.299580 1.508201 0.963254 -0.140500 0.668500 6.195000 -0.412200 0.880700 0.129100 -0.751700 0.154800 0.005700 3.576600 -3.488700 1.388500 1.094400 -2.074100 2.360500 4.667800 -7.853600 11.433000 -2.737400 7.408100 17.739900 -2.501500 10.707400 -2.723800 -6.163500 -17.656100 -13.962000 0.000000 0.000000 16.875100 7.136600 12.248700 0.874500 0.000000 0.000000 0.000000 0.000000 0.000000 0.000000 -5.032700 -3.241300 -3.431400 1.124300 12.169800 10.218200 0.000000 0.000000 -12.687000 -13.521200 -0.155000 0.290200 0.000000 0.000000 0.000000 0.000000 0.000000 0.000000 0.831000 3.190200 -28.623000 6.495600 0.000000 0.000000 -5.067600 -2.847600 0.330200 0.777400 0.000000 0.000000 0.711700 -4.749600 16.223200 4.410800 0.000000 0.000000 -5.989400 24.086700 -0.299700 12.347200 0.000000 0.000000 
0.299235 1.507914 0.963254 -0.199200 0.670300 5.973900 -0.422000 0.898700 0.146000 -0.756100 0.137700 0.009600 3.539800 -3.473800 1.432800 1.084400 -2.075700 2.362000 4.622700 -7.755400 11.411400 -2.695500 7.355900 17.630500 -2.513900 10.596500 -2.656400 -6.088300 -17.749600 -13.992200 0.000000 0.000000 16.670900 6.834600 12.162400 0.922200 0.000000 0.000000 0.000000 0.000000 0.000000 0.000000 -5.094000 -3.188400 -3.381600 0.415900 12.017900 10.500700 0.000000 0.000000 -12.638400 -14.531100 -0.377100 0.530400 0.000000 0.000000 0.000000 0.000000 0.000000 0.000000 0.876700 3.172700 -28.566800 6.495200 0.000000 0.000000 -5.067600 -2.863400 0.501100 0.799000 0.000000 0.000000 0.781600 -4.768900 16.083900 4.497500 0.000000 0.000000 -6.206700 23.988600 0.051200 12.272900 0.000000 0.000000 
